<?xml version="1.0" encoding="UTF-8"?>
<svg viewBox="0 0 64 80" xmlns="http://www.w3.org/2000/svg" fill="currentColor" aria-label="Indus Creatives monument mark">
  <!-- Finial dot -->
  <circle cx="32" cy="5" r="2.4"/>
  <!-- Finial neck -->
  <rect x="30.6" y="7.4" width="2.8" height="3"/>
  <!-- Dome cap -->
  <path d="M 25 11 L 39 11 L 36.5 15 L 27.5 15 Z"/>
  <!-- Top entablature band -->
  <rect x="20" y="16" width="24" height="2.2"/>
  <rect x="18" y="18.5" width="28" height="1.4"/>
  <!-- Pillar capitals -->
  <rect x="18.5" y="20.8" width="6" height="1.8"/>
  <rect x="39.5" y="20.8" width="6" height="1.8"/>
  <!-- Arch with pillars -->
  <path d="M 19.5 23 L 19.5 56 L 24.5 56 L 24.5 31 C 27.2 24.8 36.8 24.8 39.5 31 L 39.5 56 L 44.5 56 L 44.5 23 Z"/>
  <!-- Pillar bases -->
  <rect x="17.5" y="56" width="9" height="2"/>
  <rect x="37.5" y="56" width="9" height="2"/>
  <!-- Serifed I inside arch -->
  <rect x="30.6" y="36" width="2.8" height="17"/>
  <rect x="28" y="34" width="8" height="2.2"/>
  <rect x="28" y="52.8" width="8" height="2.2"/>
  <!-- Stepped plinth -->
  <rect x="15" y="60" width="34" height="2.6"/>
  <rect x="11.5" y="63.6" width="41" height="3"/>
  <rect x="8" y="67.6" width="48" height="4"/>
</svg>
